<svg version="1.0" xmlns="http://www.w3.org/2000/svg" width="800.000000ptpx" height="800.000000ptpx" viewBox="0 0 800.000000 800.000000" preserveAspectRatio="xMidYMid meet" transform="rotate(0) scale(1, 1)">
<metadata>
Created by potrace 1.16, written by Peter Selinger 2001-2019
</metadata>
<g transform="translate(0.000000,800.000000) scale(0.100000,-0.100000)" fill="#3730a3" stroke="none">
<path d="M5286 5779 c-10 -89 -23 -173 -29 -187 -8 -17 -49 -42 -151 -91&#10;l-139 -68 149 -6 c122 -5 153 -10 174 -25 14 -10 61 -83 105 -161 l80 -143 6&#10;48 c3 27 12 102 19 167 10 90 17 123 33 144 12 15 74 51 151 88 l131 62 -149&#10;6 c-176 7 -181 9 -240 113 -22 38 -58 102 -81 142 l-42 73 -17 -162z"/>
<path d="M3945 5760 c-552 -39 -1018 -183 -1390 -427 -259 -170 -472 -388&#10;-632 -646 -57 -92 -189 -355 -182 -361 2 -2 65 71 139 162 157 194 177 209&#10;308 219 l83 6 51 66 c28 36 108 123 177 192 307 307 623 476 1136 607 278 71&#10;649 131 915 147 52 3 115 9 140 13 l45 6 -70 7 c-128 12 -588 18 -720 9z"/>
<path d="M5621 5365 c231 -282 368 -547 419 -812 7 -35 14 -63 17 -63 2 0 20&#10;7 40 15 40 17 122 20 171 6 40 -12 40 -13 -20 129 -112 266 -325 522 -588 706&#10;-30 21 -48 29 -39 19z"/>
<path d="M3562 4644 c-29 -7 -63 -19 -75 -25 -86 -45 -144 -132 -154 -231 -11&#10;-111 34 -181 180 -275 134 -87 157 -109 157 -148 0 -45 -26 -65 -86 -65 -61 0&#10;-98 22 -149 86 -79 100 -96 114 -136 114 -21 0 -44 -7 -53 -15 -8 -8 -34 -74&#10;-58 -145 -46 -141 -46 -156 4 -174 36 -13 69 -1 126 43 l50 40 34 -24 c65 -44&#10;110 -57 214 -62 76 -4 114 -1 158 11 143 42 226 145 226 280 -1 100 -49 162&#10;-205 261 -119 76 -145 101 -145 140 0 42 27 65 77 65 47 0 92 -29 172 -114 30&#10;-32 65 -62 78 -67 29 -11 68 3 78 28 21 52 65 212 65 235 0 58 -90 63 -157 10&#10;l-38 -30 -49 25 c-54 28 -161 53 -221 52 -22 0 -64 -7 -93 -15z"/>
<path d="M1188 4639 c-21 -12 -22 -39 -4 -99 13 -44 12 -51 -71 -345 l-84&#10;-300 -44 -42 c-49 -46 -55 -67 -26 -83 21 -11 161 -14 199 -4 29 8 38 46 18&#10;76 -9 12 -16 31 -16 41 0 17 98 368 105 375 2 2 15 -36 30 -85 80 -266 118&#10;-376 137 -395 26 -26 80 -19 115 14 14 13 106 123 205 246 175 215 203 248&#10;193 220 -2 -7 -25 -87 -51 -178 -53 -190 -53 -191 -105 -240 -42 -40 -44 -64&#10;-6 -74 36 -9 364 -7 390 3 32 12 41 39 22 67 -8 13 -15 35 -15 49 0 29 164&#10;615 180 645 6 11 24 27 40 37 39 22 49 52 24 70 -15 11 -52 14 -169 11 -136&#10;-3 -153 -5 -181 -25 -17 -12 -115 -128 -219 -257 -104 -130 -190 -234 -192&#10;-232 -2 1 -35 108 -74 237 -55 184 -75 239 -95 257 -23 20 -34 22 -157 22 -73&#10;0 -140 -5 -149 -11z"/>
<path d="M4454 4596 c-17 -8 -63 -44 -101 -80 -70 -65 -71 -66 -127 -66 -43 0&#10;-61 -5 -76 -20 -11 -11 -20 -24 -20 -29 0 -5 18 -28 40 -52 30 -33 40 -52 40&#10;-78 0 -18 -23 -104 -51 -190 -55 -169 -58 -211 -21 -260 60 -81 221 -94 358&#10;-30 63 30 116 82 112 110 -3 20 -9 22 -67 23 -47 1 -66 5 -74 17 -8 12 4 63&#10;45 200 l55 184 54 6 c71 8 96 22 104 61 9 41 -12 58 -73 58 -41 0 -44 2 -38&#10;23 31 101 10 137 -76 137 -29 -1 -67 -7 -84 -14z"/>
<path d="M2560 4461 c-46 -15 -86 -39 -119 -73 -40 -40 -57 -72 -66 -122 l-7&#10;-37 35 6 c19 4 37 3 40 -3 4 -5 20 -96 38 -203 39 -241 59 -283 143 -305 14&#10;-3 23 -10 20 -15 -9 -15 -88 -57 -119 -63 -29 -6 -31 -5 -42 36 -32 117 -170&#10;158 -231 68 -47 -69 -11 -173 75 -216 61 -30 218 -26 301 9 280 117 532 470&#10;532 745 0 116 -42 176 -126 176 -44 0 -83 -29 -112 -85 -39 -74 -20 -189 41&#10;-257 l22 -23 -35 -66 c-37 -70 -83 -114 -100 -97 -5 5 -21 95 -36 199 -29 216&#10;-51 283 -104 310 -37 19 -115 28 -150 16z"/>
<path d="M5094 4461 c-206 -33 -372 -175 -413 -352 -36 -154 25 -280 159 -330&#10;77 -29 223 -36 313 -15 221 52 370 228 370 438 0 158 -106 248 -308 262 -38 2&#10;-93 1 -121 -3z m100 -186 c-2 -115 -97 -380 -146 -406 -12 -6 -25 -6 -39 2&#10;-19 10 -21 17 -16 68 6 57 49 208 84 294 27 69 70 119 96 115 20 -3 22 -8 21&#10;-73z"/>
<path d="M5797 4459 c-69 -10 -145 -42 -153 -64 -4 -9 2 -25 13 -38 11 -12 23&#10;-27 27 -34 6 -11 -112 -412 -134 -453 -5 -10 -23 -28 -40 -40 -35 -25 -38 -45&#10;-11 -60 26 -13 416 -13 442 0 27 15 24 35 -11 60 -21 15 -30 30 -30 49 0 27&#10;100 367 115 390 15 26 45 9 80 -44 20 -32 47 -60 63 -66 36 -14 99 -5 131 18&#10;61 45 80 152 39 213 -39 56 -70 73 -135 73 -64 0 -93 -11 -139 -55 l-31 -29&#10;-17 25 c-35 54 -102 72 -209 55z"/>
<path d="M6630 4457 c-110 -31 -202 -104 -249 -195 -27 -52 -51 -153 -51 -213&#10;0 -185 141 -298 359 -287 106 6 175 33 230 93 38 42 71 118 57 132 -3 4 -44&#10;-3 -90 -15 -100 -26 -132 -27 -187 -5 -30 11 -45 25 -55 49 -25 59 -24 59 98&#10;59 224 0 338 69 338 206 0 22 -7 53 -14 68 -21 40 -79 88 -123 102 -56 17&#10;-259 21 -313 6z m138 -137 c8 -78 -43 -160 -99 -160 -16 0 -29 2 -29 5 0 3 9&#10;34 21 68 38 115 100 165 107 87z"/>
<path d="M6056 4093 c-3 -37 -15 -106 -27 -153 -11 -47 -20 -108 -20 -137 1&#10;-43 -2 -54 -23 -70 -13 -10 -38 -52 -56 -93 -164 -374 -498 -742 -867 -951&#10;-357 -203 -941 -358 -1543 -408 -69 -6 -161 -14 -205 -18 l-80 -7 80 -7 c44&#10;-4 181 -10 305 -15 719 -23 1336 121 1810 424 405 259 744 705 869 1145 18 60&#10;18 70 5 97 -18 36 -38 154 -31 182 5 18 2 19 -41 14 -58 -8 -107 6 -142 39&#10;l-27 26 -7 -68z"/>
<path d="M1729 3919 l-82 -101 7 -76 c9 -94 31 -207 58 -287 35 -108 136 -298&#10;208 -395 112 -149 284 -315 425 -410 53 -36 53 -35 -29 65 -213 259 -354 595&#10;-381 908 l-7 77 -56 0 c-70 0 -127 15 -153 41 -37 37 -15 125 39 153 22 11 32&#10;28 44 70 8 31 14 56 12 56 -2 0 -40 -45 -85 -101z"/>
<path d="M2506 2739 c-10 -89 -23 -173 -29 -187 -8 -17 -49 -42 -151 -91&#10;l-140 -68 149 -6 c175 -7 180 -9 239 -113 22 -38 58 -102 81 -142 l42 -73 17&#10;163 c12 115 22 170 34 188 11 15 70 51 152 91 l134 66 -149 6 c-175 7 -180 9&#10;-239 113 -22 38 -58 102 -81 142 l-42 73 -17 -162z"/>
</g>
</svg>