<svg version="1.0" xmlns="http://www.w3.org/2000/svg" width="800.000000ptpx" height="800.000000ptpx" viewBox="0 0 800.000000 800.000000" preserveAspectRatio="xMidYMid meet" transform="rotate(0) scale(1, 1)">
<metadata>
Created by potrace 1.16, written by Peter Selinger 2001-2019
</metadata>
<g transform="translate(0.000000,800.000000) scale(0.100000,-0.100000)" fill="#3730a3" stroke="none">
<path d="M5286 5779 c-10 -89 -23 -173 -29 -187 -8 -17 -49 -42 -151 -91&#10;l-139 -68 149 -6 c122 -5 153 -10 174 -25 14 -10 61 -83 105 -161 l80 -143 6&#10;48 c3 27 12 102 19 167 10 90 17 123 33 144 12 15 74 51 151 88 l131 62 -149&#10;6 c-176 7 -181 9 -240 113 -22 38 -58 102 -81 142 l-42 73 -17 -162z"/>
<path d="M3945 5760 c-246 -18 -523 -65 -734 -126 -467 -136 -882 -407 -1155&#10;-757 -66 -85 -176 -252 -176 -269 0 -4 20 -8 44 -8 73 0 135 -56 136 -123 0&#10;-43 -35 -101 -78 -129 -21 -15 -44 -39 -50 -55 -23 -57 -182 -636 -182 -663 0&#10;-39 22 -54 73 -47 31 4 50 15 73 40 30 33 31 35 37 168 20 429 206 820 561&#10;1175 311 312 625 481 1141 612 278 71 649 131 915 147 52 3 115 9 140 13 l45&#10;6 -70 7 c-128 12 -588 18 -720 9z"/>
<path d="M5621 5365 c190 -232 304 -428 372 -640 40 -126 53 -185 67 -309 5&#10;-49 11 -90 13 -92 1 -2 25 4 52 12 28 8 85 16 128 16 90 2 87 -5 53 123 -87&#10;324 -327 648 -646 871 -30 21 -48 29 -39 19z"/>
<path d="M4245 4666 c-69 -30 -117 -105 -117 -182 0 -104 92 -178 199 -161 93&#10;15 172 121 159 214 -15 111 -136 175 -241 129z"/>
<path d="M6703 4650 c-107 -20 -203 -68 -203 -103 0 -7 16 -28 35 -47 19 -19&#10;35 -43 35 -53 0 -16 -40 -159 -66 -236 -4 -11 -8 -11 -22 2 -49 45 -181 71&#10;-283 57 -236 -33 -418 -275 -445 -590 -14 -167 46 -299 167 -365 44 -23 69&#10;-30 137 -33 76 -4 87 -2 145 26 34 17 75 44 90 60 l29 30 41 -42 c51 -51 123&#10;-76 216 -76 82 0 123 11 183 49 66 42 108 103 108 156 0 53 -8 60 -36 34 -25&#10;-24 -57 -22 -62 3 -2 10 60 225 137 479 144 474 155 523 126 579 -28 53 -78&#10;74 -185 77 -52 1 -118 -2 -147 -7z m-259 -563 c17 -12 13 -28 -60 -266 -43&#10;-139 -86 -264 -97 -277 -23 -30 -67 -32 -93 -3 -44 49 -8 282 67 432 55 109&#10;128 154 183 114z"/>
<path d="M2371 4516 c-52 -19 -107 -71 -135 -129 -14 -29 -67 -194 -116 -367&#10;-100 -350 -108 -374 -150 -435 -72 -105 -246 -116 -286 -18 -23 55 -15 104 76&#10;425 104 367 101 358 166 414 55 47 67 77 42 102 -9 9 -88 12 -293 12 -238 0&#10;-284 -2 -303 -16 -27 -19 -28 -43 -2 -91 11 -21 20 -46 20 -57 0 -11 -39 -157&#10;-87 -325 -85 -296 -87 -309 -88 -411 0 -86 4 -113 21 -151 63 -137 238 -209&#10;474 -196 178 11 283 52 382 150 88 88 131 187 208 469 l63 233 92 0 c85 0 94&#10;2 129 29 50 38 78 103 79 180 1 87 -44 158 -116 185 -37 14 -133 13 -176 -3z"/>
<path d="M2822 4504 c-27 -19 -28 -50 -2 -89 11 -16 20 -44 20 -60 0 -17 -56&#10;-226 -124 -465 -136 -473 -120 -437 -215 -513 -30 -24 -25 -67 9 -84 37 -19&#10;600 -14 623 6 29 24 20 61 -23 101 -27 25 -40 45 -40 64 0 21 37 165 76 299 5&#10;15 14 17 52 15 46 -3 47 -4 82 -68 25 -44 47 -70 70 -82 53 -27 110 -5 132 52&#10;20 49 98 329 98 350 0 33 -44 70 -83 70 -34 0 -55 -12 -167 -97 -31 -24 -53&#10;-33 -82 -33 -21 0 -38 3 -38 6 0 5 79 290 96 347 5 15 19 17 113 17 71 0 113&#10;-4 123 -12 9 -7 28 -53 43 -101 32 -107 58 -131 139 -124 74 7 94 35 134 185&#10;38 142 34 179 -22 213 -29 18 -55 19 -511 19 -419 0 -483 -2 -503 -16z"/>
<path d="M4085 4261 c-115 -19 -206 -56 -225 -90 -14 -27 -14 -28 25 -67 19&#10;-19 35 -43 35 -52 0 -10 -41 -153 -90 -318 l-90 -299 -57 -51 c-61 -56 -65&#10;-76 -16 -95 17 -6 125 -9 294 -7 246 3 269 4 288 22 28 25 27 32 -9 73 -16 18&#10;-30 42 -30 53 0 10 43 158 95 328 63 204 95 326 95 357 0 97 -60 145 -189 150&#10;-42 2 -98 0 -126 -4z"/>
<path d="M4735 4254 c-44 -8 -104 -26 -132 -40 -69 -33 -77 -60 -34 -109 17&#10;-20 31 -46 31 -58 0 -26 -166 -571 -187 -610 -7 -15 -32 -40 -53 -55 -45 -31&#10;-54 -46 -40 -72 15 -29 52 -32 331 -28 236 3 259 5 278 22 28 25 27 32 -9 73&#10;-16 18 -30 42 -30 52 0 36 131 445 156 488 31 54 81 81 122 67 45 -16 40 -52&#10;-32 -242 -92 -238 -98 -317 -30 -391 51 -57 120 -83 220 -83 186 0 314 85 314&#10;209 0 46 -16 57 -40 28 -16 -19 -49 -19 -56 -1 -3 8 25 113 62 233 75 241 83&#10;302 51 385 -33 84 -133 148 -233 148 -109 0 -210 -44 -290 -127 l-61 -62 -5&#10;43 c-14 121 -133 168 -333 130z"/>
<path d="M5705 3257 c-83 -114 -309 -338 -437 -433 -287 -214 -650 -358 -1148&#10;-458 -160 -32 -439 -71 -600 -85 -69 -6 -161 -14 -205 -18 l-80 -7 80 -7 c44&#10;-4 181 -10 305 -15 451 -14 870 39 1234 156 298 97 530 218 746 390 143 114&#10;412 404 393 424 -4 3 -13 6 -22 6 -31 0 -120 49 -163 89 l-44 40 -59 -82z"/>
<path d="M1935 3234 c-33 -12 -70 -23 -82 -23 -30 -1 -29 -8 8 -67 109 -170&#10;312 -378 484 -494 53 -36 53 -35 -29 65 -106 129 -227 335 -281 480 -13 32&#10;-27 60 -31 61 -5 1 -36 -9 -69 -22z"/>
<path d="M2506 2739 c-10 -89 -23 -173 -29 -187 -8 -17 -49 -42 -151 -91&#10;l-140 -68 149 -6 c175 -7 180 -9 239 -113 22 -38 58 -102 81 -142 l42 -73 17&#10;163 c12 115 22 170 34 188 11 15 70 51 152 91 l134 66 -149 6 c-175 7 -180 9&#10;-239 113 -22 38 -58 102 -81 142 l-42 73 -17 -162z"/>
</g>
</svg>